<svg width="18" height="18" viewBox="0 0 18 18" fill="none" xmlns="http://www.w3.org/2000/svg">
<path d="M15.7974 2.51794C15.548 2.13942 15.287 1.79909 14.9263 1.5201C14.5621 1.23837 14.1516 1.01917 13.7289 0.839255C12.4571 0.298068 10.7777 0 9 0C7.22227 0 5.54285 0.298068 4.27104 0.83929C3.84712 1.0197 3.43547 1.23963 3.07051 1.52256C2.72111 1.79343 2.44413 2.15136 2.20255 2.51798C0.782235 4.67401 0 7.43904 0 10.3037V10.3245C0.00186204 11.7436 0.904848 13.0336 2.24703 13.5345C3.0378 13.8297 3.85313 14.0724 4.68364 14.2606C4.33094 14.5735 4.14586 14.9357 4.14586 15.3329C4.14586 16.7873 6.58781 17.5482 9 17.5482C11.4122 17.5482 13.8541 16.7873 13.8541 15.3329C13.8541 14.9357 13.6691 14.5736 13.3165 14.2607C14.1469 14.0725 14.9621 13.8297 15.753 13.5345C17.0952 13.0336 17.9981 11.7436 18 10.3238V10.3038C18 7.43904 17.2178 4.67401 15.7974 2.51794V2.51794ZM4.68375 1.8091C5.82799 1.32216 7.36087 1.05399 8.99996 1.05399C10.6391 1.05399 12.1719 1.32216 13.3162 1.8091C14.2884 2.22282 14.8688 2.76103 14.8688 3.24878C14.8688 4.01952 13.3855 4.97816 10.8828 5.31895C10.352 4.461 9.70361 4.0003 8.99993 4.0003C8.29625 4.0003 7.64787 4.461 7.11705 5.31895C4.61439 4.97816 3.13101 4.01952 3.13101 3.24878C3.13108 2.76103 3.71155 2.22282 4.68375 1.8091V1.8091ZM1.05399 10.3238V10.3037C1.05399 8.1462 1.52775 6.05565 2.40436 4.28326C2.64677 4.64882 3.05312 5.03279 3.71654 5.39217C4.49406 5.81334 5.49012 6.12658 6.62635 6.31107C6.61511 6.33928 6.60379 6.36721 6.59273 6.39591C6.05832 7.78215 5.76401 9.61409 5.76401 11.5543C5.76401 12.1873 5.79602 12.8123 5.85866 13.4202C4.74804 13.2295 3.65906 12.9366 2.61558 12.5471C1.6828 12.1989 1.05525 11.3052 1.05399 10.3238V10.3238ZM11.8682 16.0358C11.1105 16.3314 10.0919 16.4942 9 16.4942C7.90814 16.4942 6.88953 16.3314 6.13178 16.0358C5.39462 15.7481 5.19985 15.4502 5.19985 15.3329C5.19985 15.1547 5.57992 14.7639 6.59979 14.4742C6.85306 14.4022 7.01436 14.1544 6.97761 13.8937C6.87172 13.1429 6.81803 12.3559 6.81803 11.5543C6.81803 9.10217 7.2892 7.22639 7.86345 6.13417C7.86503 6.13122 7.86665 6.12827 7.86816 6.12528C8.23579 5.42944 8.64519 5.05429 9 5.05429C9.35586 5.05429 9.76656 5.43151 10.135 6.13119C10.1372 6.13523 10.1391 6.13944 10.1413 6.14341C10.7134 7.23693 11.182 9.10898 11.182 11.5543C11.182 12.3559 11.1283 13.1429 11.0224 13.8937C10.9857 14.1544 11.147 14.4022 11.4002 14.4742C12.4201 14.7639 12.8002 15.1547 12.8002 15.3329C12.8002 15.4502 12.6054 15.7482 11.8682 16.0358V16.0358ZM16.946 10.3231C16.9447 11.3052 16.3172 12.1989 15.3844 12.5471C14.3408 12.9366 13.2521 13.2295 12.1413 13.4202C12.2039 12.8124 12.236 12.1873 12.236 11.5543C12.236 9.61405 11.9416 7.78212 11.4072 6.39588C11.3962 6.36717 11.3849 6.33924 11.3736 6.31103C12.5098 6.12658 13.5059 5.81334 14.2834 5.39217C14.9468 5.03279 15.3532 4.64882 15.5956 4.28326C16.4722 6.05565 16.946 8.14617 16.946 10.3037V10.3231H16.946Z" fill="black"/>
</svg>
